# xmcd
#
# Track frame offsets:
#	150
#	11537
#	28046
#	46016
#	60183
#	79791
#	97340
#	115982
#	137079
#	154046
#
# Disc length: 2305 seconds
#
# Revision: 1
# Processed by: cddbd v1.5PL3 Copyright (c) Steve Scherf et al.
# Submitted via: EasyCDDAExtractor 7.0.5.4
#
DISCID=7508ff0a
DTITLE=张学友 - Life Is Like A Dream
DYEAR=2004
DGENRE=Pop
TTITLE0=勇敢的故事
TTITLE1=想劈酒
TTITLE2=燥狂
TTITLE3=Life Is Like A Dream
TTITLE4=慢条斯理
TTITLE5=她
TTITLE6=给朋友
TTITLE7=宁愿做错
TTITLE8=讲你知
TTITLE9=摇瑶
EXTD=
EXTT0=
EXTT1=
EXTT2=
EXTT3=
EXTT4=
EXTT5=
EXTT6=
EXTT7=
EXTT8=
EXTT9=
PLAYORDER=
